{
	"asset":{
		"generator":"Khronos glTF Blender I/O v4.3.47",
		"version":"2.0"
	},
	"scene":0,
	"scenes":[
		{
			"name":"Scene",
			"nodes":[
				0
			]
		}
	],
	"nodes":[
		{
			"mesh":0,
			"name":"cecilian-tree-v1-test",
			"translation":[
				-11.813129425048828,
				0,
				0
			]
		}
	],
	"materials":[
		{
			"doubleSided":true,
			"name":"Material.002",
			"pbrMetallicRoughness":{
				"baseColorTexture":{
					"index":0
				},
				"metallicFactor":0,
				"roughnessFactor":0.5
			}
		},
		{
			"doubleSided":true,
			"name":"tree-texture.001",
			"pbrMetallicRoughness":{
				"baseColorTexture":{
					"index":1
				},
				"metallicFactor":0,
				"roughnessFactor":0.5
			}
		}
	],
	"meshes":[
		{
			"name":"Cube.003",
			"primitives":[
				{
					"attributes":{
						"POSITION":0,
						"NORMAL":1,
						"TEXCOORD_0":2
					},
					"indices":3,
					"material":0
				},
				{
					"attributes":{
						"POSITION":4,
						"NORMAL":5,
						"TEXCOORD_0":6
					},
					"indices":7,
					"material":1
				}
			]
		}
	],
	"textures":[
		{
			"sampler":0,
			"source":0
		},
		{
			"sampler":0,
			"source":1
		}
	],
	"images":[
		{
			"mimeType":"image/png",
			"name":"tree-trunk-gradient-v1",
			"uri":"tree-trunk-gradient-v1.png"
		},
		{
			"mimeType":"image/png",
			"name":"tree-gradient-v1",
			"uri":"tree-gradient-v1.png"
		}
	],
	"accessors":[
		{
			"bufferView":0,
			"componentType":5126,
			"count":622,
			"max":[
				0.8904067277908325,
				1.874224066734314,
				0.44658011198043823
			],
			"min":[
				-0.2452537715435028,
				0.08445581793785095,
				-0.1722070872783661
			],
			"type":"VEC3"
		},
		{
			"bufferView":1,
			"componentType":5126,
			"count":622,
			"type":"VEC3"
		},
		{
			"bufferView":2,
			"componentType":5126,
			"count":622,
			"type":"VEC2"
		},
		{
			"bufferView":3,
			"componentType":5123,
			"count":1386,
			"type":"SCALAR"
		},
		{
			"bufferView":4,
			"componentType":5126,
			"count":285,
			"max":[
				1.3826351165771484,
				3.963789463043213,
				1.2067183256149292
			],
			"min":[
				-1.0362334251403809,
				1.4746136665344238,
				-1.1505968570709229
			],
			"type":"VEC3"
		},
		{
			"bufferView":5,
			"componentType":5126,
			"count":285,
			"type":"VEC3"
		},
		{
			"bufferView":6,
			"componentType":5126,
			"count":285,
			"type":"VEC2"
		},
		{
			"bufferView":7,
			"componentType":5123,
			"count":1440,
			"type":"SCALAR"
		}
	],
	"bufferViews":[
		{
			"buffer":0,
			"byteLength":7464,
			"byteOffset":0,
			"target":34962
		},
		{
			"buffer":0,
			"byteLength":7464,
			"byteOffset":7464,
			"target":34962
		},
		{
			"buffer":0,
			"byteLength":4976,
			"byteOffset":14928,
			"target":34962
		},
		{
			"buffer":0,
			"byteLength":2772,
			"byteOffset":19904,
			"target":34963
		},
		{
			"buffer":0,
			"byteLength":3420,
			"byteOffset":22676,
			"target":34962
		},
		{
			"buffer":0,
			"byteLength":3420,
			"byteOffset":26096,
			"target":34962
		},
		{
			"buffer":0,
			"byteLength":2280,
			"byteOffset":29516,
			"target":34962
		},
		{
			"buffer":0,
			"byteLength":2880,
			"byteOffset":31796,
			"target":34963
		}
	],
	"samplers":[
		{
			"magFilter":9729,
			"minFilter":9987
		}
	],
	"buffers":[
		{
			"byteLength":34676,
			"uri":"cecilian-tree-v1.bin"
		}
	]
}
